<svg width="200" height="200" viewBox="0 0 200 200" fill="none" xmlns="http://www.w3.org/2000/svg">
<path d="M40.045 167.634H144.727C155.246 167.634 163.772 159.106 163.772 148.589V51.042C163.772 40.524 155.246 32 144.727 32H40.045C29.541 32 21.024 40.501 21 50.998V148.633C21.025 159.13 29.542 167.634 40.045 167.634Z" fill="url(#paint0_linear_2864_230)"/>
<path d="M40.0469 167.634H144.731C155.249 167.634 163.774 159.106 163.774 148.589V135.421C143.993 131.64 119.244 129.39 92.3889 129.39C88.9939 129.39 85.6329 129.427 82.3129 129.497L79.2329 139.597L59.1539 141.739L45.7999 131.786C36.9099 132.745 28.5919 133.972 21.0039 135.421V148.632C21.0279 159.13 29.5439 167.634 40.0469 167.634Z" fill="url(#paint1_linear_2864_230)"/>
<path d="M66.627 97.428L58.582 92.3301L38.635 103.871V126.95L58.692 137.385L78.385 126.95V104.524L71.397 100.485L52.467 111.367V121.489L45.733 117.885V109.143L66.627 97.428ZM33.27 80.5181C33.27 79.0031 34.902 77.772 36.915 77.772H80.439C82.452 77.772 84.084 79.0031 84.084 80.5181V149.451C84.084 150.969 82.452 152.2 80.439 152.2H36.915C34.902 152.2 33.27 150.969 33.27 149.451V80.5181Z" fill="#83E4ED"/>
<path d="M93.032 118.856C93.032 117.399 94.608 116.22 96.555 116.22H129.649C131.594 116.22 133.17 117.399 133.17 118.856V125.055C133.17 126.506 131.594 127.688 129.649 127.688H96.555C94.608 127.688 93.032 126.506 93.032 125.055V118.856Z" fill="#00C0F0"/>
<path d="M93.635 82.823C93.635 80.035 95.895 77.7742 98.686 77.7742H112.973C115.762 77.7742 118.024 80.035 118.024 82.823V100.692C118.024 103.479 115.762 105.741 112.973 105.741H98.686C95.895 105.741 93.635 103.479 93.635 100.692V82.823Z" fill="#D261E8"/>
<path d="M123.54 82.823C123.54 80.035 125.8 77.7742 128.59 77.7742H142.876C145.667 77.7742 147.928 80.035 147.928 82.823V100.692C147.928 103.479 145.667 105.741 142.876 105.741H128.59C125.8 105.741 123.54 103.479 123.54 100.692V82.823Z" fill="#FFBC36"/>
<path d="M156.11 82.823C156.11 80.035 158.372 77.7742 161.161 77.7742H174.372C177.161 77.7742 179.424 80.035 179.424 82.823V100.692C179.424 103.479 177.161 105.741 174.372 105.741H161.161C158.372 105.741 156.11 103.479 156.11 100.692V82.823Z" fill="#00C0F0"/>
<path d="M158.965 105.741H163.774V77.772H159.01C156.221 77.772 153.958 80.033 153.958 82.823V100.688C153.959 103.464 156.197 105.717 158.965 105.741Z" fill="url(#paint2_linear_2864_230)"/>
<path d="M93.032 139.884C93.032 138.426 94.608 137.247 96.555 137.247H150.108C152.053 137.247 153.631 138.427 153.631 139.884V146.081C153.631 147.536 152.053 148.716 150.108 148.716H96.555C94.608 148.716 93.032 147.535 93.032 146.081V139.884Z" fill="#00C0F0"/>
<path d="M28.34 64.2161V49.26C28.34 48.094 29.325 47.1121 30.491 47.1121H48.087C49.254 47.1121 50.236 48.094 50.236 49.26V64.2161C50.236 65.3801 49.252 66.366 48.087 66.366H30.491C29.326 66.366 28.34 65.3801 28.34 64.2161ZM54.086 64.2161V49.26C54.086 48.094 55.069 47.1121 56.236 47.1121H152.129C153.295 47.1121 154.279 48.094 154.279 49.26V64.2161C154.279 65.3801 153.295 66.366 152.129 66.366H56.236C55.07 66.366 54.086 65.3801 54.086 64.2161Z" fill="#1934BF"/>
<defs>
<linearGradient id="paint0_linear_2864_230" x1="18.815" y1="119.702" x2="165.965" y2="79.932" gradientUnits="userSpaceOnUse">
<stop stop-color="#00DBDB"/>
<stop offset="0.7216" stop-color="#3647D3"/>
<stop offset="1" stop-color="#3647D3"/>
</linearGradient>
<linearGradient id="paint1_linear_2864_230" x1="19.9527" y1="144.873" x2="164.649" y2="154.664" gradientUnits="userSpaceOnUse">
<stop stop-color="#1B2BBB"/>
<stop offset="1" stop-color="#078DDD"/>
</linearGradient>
<linearGradient id="paint2_linear_2864_230" x1="153.161" y1="103.243" x2="166.179" y2="81.2178" gradientUnits="userSpaceOnUse">
<stop stop-color="#05E5FC"/>
<stop offset="1" stop-color="#139DF3"/>
</linearGradient>
</defs>
</svg>
